<svg id="Capa_1" enable-background="new 0 0 512.016 512.016" height="512" viewBox="0 0 512.016 512.016" width="512" xmlns="http://www.w3.org/2000/svg"><path d="m304.757 111.476c8.93-8.928 8.933-23.382.001-32.313-26.904-26.906-70.592-26.907-97.499 0-8.929 8.927-8.933 23.382-.001 32.313 8.918 8.92 23.381 8.931 32.312.001 9.064-9.062 23.813-9.063 32.877 0 8.927 8.928 23.383 8.929 32.31-.001zm-21.704-10.606c-14.911-14.909-39.175-14.911-54.089 0-3.066 3.066-8.032 3.068-11.1 0-3.067-3.067-3.069-8.03.001-11.099 21.041-21.042 55.241-21.046 76.286.001 3.067 3.066 3.069 8.029-.001 11.099-3.065 3.066-8.031 3.066-11.097-.001z"/><path d="m209.746 64.884c25.57-25.567 66.949-25.571 92.523 0 8.927 8.929 23.381 8.93 32.312 0 8.929-8.929 8.931-23.382 0-32.312-43.425-43.424-113.715-43.433-157.146 0-8.93 8.928-8.932 23.382-.001 32.313 8.929 8.927 23.385 8.929 32.312-.001zm-21.704-21.706c37.559-37.562 98.363-37.569 135.933 0 3.068 3.067 3.067 8.031-.001 11.099-3.065 3.067-8.032 3.068-11.098 0-31.43-31.428-82.3-31.434-113.736 0-3.065 3.065-8.031 3.069-11.098 0-3.067-3.067-3.069-8.031 0-11.099z"/><path d="m258.282 116.716c-14.327-1.469-26.482 10.738-25.005 25 1.193 11.736 10.969 20.586 22.738 20.586 13.645 0 24.076-11.872 22.727-25.137-1.116-10.747-9.719-19.347-20.46-20.449zm-2.267 30.586c-4.044 0-7.403-3.054-7.816-7.118-.238-2.301.585-4.582 2.259-6.259 4.691-4.699 12.674-1.861 13.362 4.773.446 4.374-2.996 8.604-7.805 8.604z"/><path d="m201.51 434.585c-6.617-.678-13.162 1.662-17.914 6.422-4.739 4.746-7.063 11.264-6.379 17.865 1.158 11.402 10.654 20 22.09 20 6.256 0 12.247-2.66 16.438-7.299 4.217-4.668 6.274-10.903 5.642-17.122-1.084-10.441-9.442-18.796-19.877-19.866zm3.104 26.932c-1.371 1.518-3.256 2.354-5.307 2.354-3.708 0-6.789-2.801-7.168-6.531-.219-2.107.536-4.198 2.071-5.735 1.376-1.377 3.19-2.135 5.063-2.135.235 0 .472.012.708.036 3.458.354 6.125 3.024 6.482 6.477.204 1.991-.47 4.008-1.849 5.534z"/><path d="m256.015 478.872c6.256 0 12.247-2.66 16.438-7.299 4.217-4.668 6.274-10.903 5.642-17.122-1.083-10.441-9.441-18.796-19.876-19.866-6.619-.678-13.16 1.662-17.914 6.421-4.739 4.746-7.063 11.263-6.38 17.867 1.158 11.401 10.655 19.999 22.09 19.999zm-5.097-27.266c1.376-1.377 3.19-2.135 5.063-2.135.235 0 .472.012.708.036 3.458.354 6.125 3.024 6.482 6.477.203 1.991-.472 4.008-1.851 5.534-1.371 1.518-3.256 2.354-5.307 2.354-3.709 0-6.79-2.801-7.169-6.53-.217-2.108.539-4.199 2.074-5.736z"/><path d="m314.925 434.585c-6.635-.678-13.161 1.663-17.912 6.421-4.74 4.746-7.064 11.264-6.381 17.867 1.159 11.401 10.656 19.999 22.091 19.999 6.256 0 12.247-2.661 16.438-7.299 4.218-4.668 6.273-10.903 5.641-17.122-1.084-10.441-9.442-18.796-19.877-19.866zm3.105 26.932c-1.371 1.518-3.256 2.354-5.307 2.354-3.709 0-6.79-2.801-7.169-6.53-.219-2.108.537-4.199 2.072-5.737 1.376-1.377 3.189-2.134 5.063-2.134.235 0 .472.012.708.036 3.457.354 6.124 3.024 6.481 6.478.204 1.991-.469 4.007-1.848 5.533z"/><path d="m221.386 399.128c-1.083-10.441-9.441-18.796-19.876-19.866-6.617-.677-13.162 1.662-17.914 6.422-4.739 4.746-7.063 11.264-6.379 17.865 1.158 11.402 10.654 20 22.09 20 6.256 0 12.247-2.66 16.438-7.299 4.216-4.668 6.274-10.903 5.641-17.122zm-16.772 7.066c-1.371 1.518-3.256 2.354-5.307 2.354-3.708 0-6.789-2.801-7.168-6.531-.219-2.107.536-4.198 2.071-5.735 1.376-1.377 3.19-2.135 5.063-2.135.235 0 .472.012.708.036 3.458.354 6.125 3.024 6.482 6.477.204 1.991-.47 4.008-1.849 5.534z"/><path d="m258.218 379.262c-6.619-.677-13.16 1.662-17.914 6.421-4.739 4.746-7.063 11.263-6.38 17.867 1.159 11.401 10.656 19.999 22.091 19.999 6.256 0 12.247-2.66 16.438-7.299 4.217-4.668 6.274-10.903 5.642-17.122-1.084-10.441-9.442-18.796-19.877-19.866zm3.104 26.932c-1.371 1.518-3.256 2.354-5.307 2.354-3.709 0-6.79-2.801-7.169-6.53-.219-2.108.537-4.199 2.072-5.736 1.376-1.377 3.19-2.135 5.063-2.135.235 0 .472.012.708.036 3.458.354 6.125 3.024 6.482 6.477.204 1.991-.47 4.008-1.849 5.534z"/><path d="m334.801 399.128c-1.083-10.441-9.441-18.796-19.876-19.866-6.635-.678-13.161 1.663-17.912 6.421-4.74 4.746-7.064 11.264-6.381 17.867 1.159 11.401 10.656 19.999 22.091 19.999 6.256 0 12.247-2.661 16.438-7.299 4.217-4.669 6.273-10.904 5.64-17.122zm-16.771 7.066c-1.371 1.518-3.256 2.354-5.307 2.354-3.709 0-6.79-2.801-7.169-6.53-.219-2.108.537-4.199 2.072-5.737 1.376-1.377 3.189-2.134 5.063-2.134.235 0 .472.012.708.036 3.457.354 6.124 3.024 6.481 6.478.204 1.991-.469 4.007-1.848 5.533z"/><path d="m221.386 343.804c-1.083-10.441-9.441-18.796-19.876-19.866-6.617-.677-13.162 1.662-17.914 6.422-4.739 4.746-7.063 11.264-6.379 17.865 1.158 11.402 10.654 20 22.09 20 6.255 0 12.246-2.66 16.438-7.299 4.216-4.667 6.274-10.902 5.641-17.122zm-16.772 7.067c-1.371 1.518-3.256 2.354-5.307 2.354-3.708 0-6.789-2.801-7.168-6.531-.219-2.107.536-4.198 2.071-5.735 1.376-1.377 3.19-2.135 5.063-2.135.235 0 .472.012.708.036 3.458.354 6.125 3.024 6.482 6.477.204 1.991-.47 4.008-1.849 5.534z"/><path d="m278.094 343.804c-1.083-10.441-9.441-18.796-19.876-19.866-6.619-.677-13.16 1.662-17.914 6.421-4.739 4.746-7.063 11.263-6.38 17.867 1.159 11.401 10.656 19.999 22.091 19.999 6.255 0 12.246-2.66 16.438-7.299 4.216-4.667 6.274-10.902 5.641-17.122zm-16.772 7.067c-1.371 1.518-3.256 2.354-5.307 2.354-3.708 0-6.79-2.801-7.169-6.53-.219-2.108.537-4.199 2.072-5.736 1.376-1.377 3.19-2.135 5.063-2.135.235 0 .472.012.708.036 3.458.354 6.125 3.024 6.482 6.477.204 1.991-.47 4.008-1.849 5.534z"/><path d="m258.218 238.767c-6.639-.679-13.162 1.663-17.914 6.422-4.739 4.746-7.063 11.263-6.38 17.866 1.159 11.401 10.656 19.999 22.091 19.999 6.255 0 12.246-2.66 16.438-7.299 4.217-4.668 6.274-10.903 5.642-17.123-1.084-10.439-9.442-18.794-19.877-19.865zm3.104 26.933c-1.371 1.519-3.256 2.354-5.307 2.354-3.709 0-6.79-2.801-7.169-6.53-.219-2.108.537-4.199 2.072-5.736 1.376-1.378 3.19-2.135 5.064-2.135.234 0 .471.012.707.036 3.458.355 6.125 3.024 6.482 6.477.204 1.991-.47 4.008-1.849 5.534z"/><path d="m314.925 323.939c-6.635-.677-13.161 1.663-17.912 6.421-4.74 4.746-7.064 11.264-6.381 17.867 1.159 11.401 10.656 19.999 22.091 19.999 6.256 0 12.247-2.661 16.438-7.299 4.217-4.668 6.273-10.904 5.641-17.122-1.084-10.442-9.442-18.796-19.877-19.866zm3.105 26.932c-1.371 1.518-3.256 2.354-5.307 2.354-3.708 0-6.79-2.801-7.169-6.53-.219-2.108.537-4.199 2.072-5.737 1.376-1.377 3.189-2.134 5.063-2.134.234 0 .472.012.708.036 3.457.354 6.124 3.024 6.481 6.478.204 1.991-.469 4.007-1.848 5.533z"/><path d="m227.692 238.73c-2.929-2.929-7.678-2.93-10.606 0l-11.578 11.577c-5.814 5.815-5.814 15.277.001 21.093l11.577 11.577c2.927 2.929 7.677 2.929 10.606 0s2.929-7.678-.001-10.606l-11.517-11.517 11.517-11.517c2.929-2.93 2.929-7.678.001-10.607z"/><path d="m278.132 221.93-11.577-11.577c-5.813-5.813-15.277-5.815-21.095 0l-11.576 11.577c-2.929 2.929-2.929 7.678.001 10.606 2.928 2.93 7.677 2.929 10.606 0l11.517-11.518 11.517 11.518c1.465 1.465 3.384 2.197 5.304 2.197 1.919 0 3.839-.732 5.303-2.197 2.929-2.928 2.929-7.677 0-10.606z"/><path d="m233.884 299.777 11.577 11.577c2.907 2.907 6.728 4.361 10.547 4.361s7.64-1.454 10.548-4.361l11.576-11.576c2.929-2.929 2.929-7.678 0-10.606-2.93-2.929-7.678-2.929-10.607 0l-11.517 11.517-11.517-11.517c-2.93-2.929-7.678-2.929-10.607 0-2.929 2.927-2.929 7.676 0 10.605z"/><path d="m294.932 238.73c-2.93-2.929-7.678-2.929-10.607 0s-2.929 7.678 0 10.606l11.517 11.517-11.517 11.517c-2.929 2.929-2.929 7.678.001 10.606 2.927 2.929 7.677 2.929 10.606 0l11.575-11.576c5.829-5.829 5.831-15.264.001-21.094z"/><path d="m355.233 357.36c-4.143 0-7.5 3.358-7.5 7.5v112.738c0 10.708-8.711 19.418-19.418 19.418h-54.807c-4.143 0-7.5 3.358-7.5 7.5s3.357 7.5 7.5 7.5h54.807c18.979 0 34.418-15.44 34.418-34.418v-112.738c0-4.142-3.358-7.5-7.5-7.5z"/><path d="m328.315 182.703h-144.613c-18.979 0-34.418 15.44-34.418 34.418v260.476c0 18.979 15.439 34.418 34.418 34.418h54.807c4.143 0 7.5-3.358 7.5-7.5s-3.357-7.5-7.5-7.5h-54.807c-10.707 0-19.418-8.711-19.418-19.418v-260.475c0-10.708 8.711-19.418 19.418-19.418h144.613c10.707 0 19.418 8.711 19.418 19.418v112.738c0 4.142 3.357 7.5 7.5 7.5s7.5-3.358 7.5-7.5v-112.738c0-18.979-15.44-34.419-34.418-34.419z"/></svg>